<svg id="Capa_1" enable-background="new 0 0 512 512" height="512" viewBox="0 0 512 512" width="512" xmlns="http://www.w3.org/2000/svg"><g><path d="m256.166 340.333v-340.333c93.83 0 170.167 76.336 170.167 170.167s-76.337 170.166-170.167 170.166z" fill="#151719"/><g><path d="m266.833 65.57c-3.568-2.06-7.183-3.967-10.833-5.741l-10.667 89.504 10.667 106.475 73.118 42.215c46.915-81.26 18.974-185.538-62.285-232.453z" fill="#7d8287"/><path d="m34.381 127.856 221.619 127.952v-195.978c-79.476-38.61-176.764-9.665-221.619 68.026z" fill="#a0a0a5"/></g><g><path d="m328.951 213.689c-17.635-30.545-43.376-53.553-72.951-67.887l-10.667 56.864 10.667 53.142z" fill="#696e73"/><path d="m96.499 151.404c-81.259 46.915-109.2 151.193-62.285 232.452l221.786-128.048v-110.006c-49.106-23.799-108.786-23.679-159.501 5.602z" fill="#7d8287"/></g><path d="m255.833 171.667v340.333c-93.83 0-170.167-76.336-170.167-170.167s76.337-170.166 170.167-170.166z" fill="#696e73"/><path d="m183.048 298.31 294.737-170.166c46.915 81.259 18.975 185.537-62.285 232.452-81.259 46.915-185.537 18.974-232.452-62.286z" fill="#292d31"/><g><path d="m256 256.192-10.667 95.808 10.667 100.17c79.476 38.61 176.764 9.665 221.619-68.026z" fill="#4b5055"/><path d="m182.882 213.977c-46.915 81.259-18.974 185.537 62.285 232.452 3.568 2.06 7.183 3.967 10.833 5.74v-195.977z" fill="#5a5f64"/></g><g><g><path d="m256 197.333-10.001 57.178 10.001 60.155c32.401 0 58.667-26.266 58.667-58.667 0-32.4-26.267-58.666-58.667-58.666z" fill="#151719"/><path d="m197.333 256c0 32.401 26.266 58.667 58.667 58.667v-117.334c-32.401 0-58.667 26.266-58.667 58.667z" fill="#292d31"/></g><g><path d="m256 171.667-10.667 20.333 10.667 9.667c29.959 0 54.333 24.374 54.333 54.333s-24.374 54.333-54.333 54.333l-10.667 9.666 10.667 20.334c46.501 0 84.333-37.832 84.333-84.333s-37.832-84.333-84.333-84.333z" fill="#efe2dd"/><path d="m201.667 256c0-29.96 24.374-54.333 54.333-54.333v-30c-46.501 0-84.333 37.832-84.333 84.333s37.832 84.333 84.333 84.333v-30c-29.959 0-54.333-24.373-54.333-54.333z" fill="#f7f0eb"/></g></g></g></svg>